<svg width="502" height="179" xmlns="http://www.w3.org/2000/svg" xmlns:xlink="http://www.w3.org/1999/xlink" overflow="hidden"><defs><clipPath id="clip0"><path d="M416 211 918 211 918 390 416 390Z" fill-rule="evenodd" clip-rule="evenodd"/></clipPath></defs><g clip-path="url(#clip0)" transform="translate(-416 -211)"><path d="M587 286.834C587 281.403 591.403 277 596.834 277L695.166 277C700.597 277 705 281.403 705 286.834L705 326.166C705 331.597 700.597 336 695.166 336L596.834 336C591.403 336 587 331.597 587 326.166Z" stroke="#595959" stroke-width="12" stroke-miterlimit="8" fill="none" fill-rule="evenodd"/><path d="M630 336 630 368.635" stroke="#595959" stroke-width="12" stroke-miterlimit="8" fill="none" fill-rule="evenodd"/><path d="M660 336 660 368.635" stroke="#595959" stroke-width="12" stroke-miterlimit="8" fill="none" fill-rule="evenodd"/><path d="M607 366 683.169 366" stroke="#595959" stroke-width="12" stroke-miterlimit="8" fill="none" fill-rule="evenodd"/><path d="M683 366C690.732 366 697 374.73 697 385.5" stroke="#595959" stroke-width="12" stroke-miterlimit="8" fill="none" fill-rule="evenodd"/><path d="M14.5 0C22.5081-4.96522e-15 29 8.73045 29 19.5" stroke="#595959" stroke-width="12" stroke-miterlimit="8" fill="none" fill-rule="evenodd" transform="matrix(-1 -8.74228e-08 -8.74228e-08 1 622 366)"/><path d="M646 246 646 276.827" stroke="#595959" stroke-width="12" stroke-miterlimit="8" fill="none" fill-rule="evenodd"/><path d="M631 232.5C631 224.492 637.492 218 645.5 218 653.508 218 660 224.492 660 232.5 660 240.508 653.508 247 645.5 247 637.492 247 631 240.508 631 232.5Z" stroke="#595959" stroke-width="12" stroke-miterlimit="8" fill="none" fill-rule="evenodd"/><text fill="#00BDFF" font-family="Consolas,Consolas_MSFontService,sans-serif" font-weight="400" font-size="72" transform="translate(459.359 328)">DNS<tspan fill="#000000" x="256.468" y="0">Cert</tspan></text><path d="M718 345 877.525 345" stroke="#00BDFF" stroke-width="8" stroke-miterlimit="8" fill="none" fill-rule="evenodd"/><text fill="#595959" font-family="Consolas,Consolas_MSFontService,sans-serif" font-weight="400" font-size="43" transform="translate(596.664 318)">robo</text><path d="M630 309C630 307.895 630.895 307 632 307 633.105 307 634 307.895 634 309 634 310.105 633.105 311 632 311 630.895 311 630 310.105 630 309Z" fill="#595959" fill-rule="evenodd"/><path d="M677 309C677 307.895 677.895 307 679 307 680.105 307 681 307.895 681 309 681 310.105 680.105 311 679 311 677.895 311 677 310.105 677 309Z" fill="#595959" fill-rule="evenodd"/></g></svg>