<?xml version="1.0" encoding="UTF-8" standalone="no"?>
<svg
   xmlns:dc="http://purl.org/dc/elements/1.1/"
   xmlns:cc="http://creativecommons.org/ns#"
   xmlns:rdf="http://www.w3.org/1999/02/22-rdf-syntax-ns#"
   xmlns:svg="http://www.w3.org/2000/svg"
   xmlns="http://www.w3.org/2000/svg"
   style="overflow:hidden"
   id="svg37"
   version="1.1"
   overflow="hidden"
   height="173.5"
   width="405.67111">
  <metadata
     id="metadata41">
    <rdf:RDF>
      <cc:Work
         rdf:about="">
        <dc:format>image/svg+xml</dc:format>
        <dc:type
           rdf:resource="http://purl.org/dc/dcmitype/StillImage" />
        <dc:title></dc:title>
      </cc:Work>
    </rdf:RDF>
  </metadata>
  <defs
     id="defs5">
    <clipPath
       id="clip0">
      <path
         style="clip-rule:evenodd;fill-rule:evenodd"
         id="path2"
         d="M 416,211 H 918 V 392 H 416 Z" />
    </clipPath>
  </defs>
  <path
     d="m 123.80897,74.834 c 0,-5.431 4.403,-9.834 9.834,-9.834 h 98.332 c 5.431,0 9.834,4.403 9.834,9.834 v 39.332 c 0,5.431 -4.403,9.834 -9.834,9.834 h -98.332 c -5.431,0 -9.834,-4.403 -9.834,-9.834 z"
     stroke-miterlimit="8"
     id="path7"
     style="fill:none;fill-rule:evenodd;stroke:#595959;stroke-width:12;stroke-miterlimit:8" />
  <path
     d="m 168.729,124 v 32.635"
     stroke-miterlimit="8"
     id="path9"
     style="fill:none;fill-rule:evenodd;stroke:#595959;stroke-width:12;stroke-miterlimit:8" />
  <path
     d="m 196.80897,124 v 32.635"
     stroke-miterlimit="8"
     id="path11"
     style="fill:none;fill-rule:evenodd;stroke:#595959;stroke-width:12;stroke-miterlimit:8" />
  <path
     d="m 131.669,173.5 c 0,-10.76955 6.4919,-19.5 14.5,-19.5 h 76.03451 c 7.59752,0 13.86552,8.73 13.86552,19.5"
     stroke-miterlimit="8"
     id="path13"
     style="fill:none;fill-rule:evenodd;stroke:#595959;stroke-width:12;stroke-miterlimit:8" />
  <path
     d="M 182.80897,34 V 64.827"
     stroke-miterlimit="8"
     id="path19"
     style="fill:none;fill-rule:evenodd;stroke:#595959;stroke-width:12;stroke-miterlimit:8" />
  <path
     d="m 167.80897,20.5 c 0,-8.008 6.492,-14.5 14.5,-14.5 8.008,0 14.5,6.492 14.5,14.5 0,8.008 -6.492,14.5 -14.5,14.5 -8.008,0 -14.5,-6.492 -14.5,-14.5 z"
     stroke-miterlimit="8"
     id="path21"
     style="fill:none;fill-rule:evenodd;stroke:#595959;stroke-width:12;stroke-miterlimit:8" />
  <g
     id="text25"
     style="font-weight:400;font-size:72px;font-family:Consolas, Consolas_MSFontService, sans-serif;fill:#00bdff"
     aria-label="DNSCert">
    <path
       id="path50"
       style="font-weight:400;font-size:72px;font-family:Consolas, Consolas_MSFontService, sans-serif;fill:#00bdff"
       d="m 33.187501,93.515625 q 0,3.304687 -0.527344,6.328125 -0.492187,3.02344 -1.617187,5.625 -1.125,2.60156 -2.917969,4.74609 -1.792969,2.10938 -4.394531,3.6211 -2.601563,1.51172 -6.046875,2.35547 Q 14.238282,117 9.8437512,117 H 1.1920929e-6 V 71.050781 H 11.847657 q 10.757813,0 16.03125,5.554688 5.308594,5.519531 5.308594,16.910156 z m -6.574219,0.457031 q 0,-4.886719 -0.914062,-8.261719 -0.914063,-3.375 -2.777344,-5.449218 -1.863281,-2.074219 -4.675781,-2.988282 -2.8125,-0.949218 -6.609375,-0.949218 H 6.2578137 v 35.261721 h 4.6757813 q 15.679687,0 15.679687,-17.613284 z" />
    <path
       id="path52"
       style="font-weight:400;font-size:72px;font-family:Consolas, Consolas_MSFontService, sans-serif;fill:#00bdff"
       d="M 71.26172,117 H 63.10547 L 49.710939,88.347656 45.843751,79.136719 V 102.30469 117 H 40.007814 V 71.050781 h 8.050781 l 12.761719,27.140625 4.605468,10.511724 V 84.09375 71.050781 h 5.835938 z" />
    <path
       id="path54"
       style="font-weight:400;font-size:72px;font-family:Consolas, Consolas_MSFontService, sans-serif;fill:#00bdff"
       d="m 110.53125,104.55469 q 0,3.26953 -1.33594,5.73047 -1.33593,2.46093 -3.72656,4.11328 -2.39062,1.61719 -5.765624,2.42578 -3.339844,0.80859 -7.382812,0.80859 -1.828125,0 -3.65625,-0.14062 -1.792969,-0.14063 -3.480469,-0.35156 -1.652344,-0.21094 -3.128906,-0.49219 -1.476563,-0.28125 -2.671875,-0.59766 v -6.04687 q 2.636718,0.98437 5.90625,1.54687 3.304687,0.5625 7.488281,0.5625 3.023437,0 5.132812,-0.45703 2.144533,-0.49219 3.480473,-1.40625 1.37109,-0.94922 1.96875,-2.28516 0.63281,-1.33593 0.63281,-3.05859 0,-1.86328 -1.05469,-3.16406 -1.01953,-1.33594 -2.70703,-2.355471 -1.6875,-1.054688 -3.867188,-1.898438 -2.144531,-0.878906 -4.394531,-1.792969 -2.25,-0.914062 -4.429687,-1.96875 -2.144532,-1.089843 -3.832032,-2.53125 -1.6875,-1.476562 -2.742187,-3.445312 -1.019531,-1.96875 -1.019531,-4.675781 0,-2.355469 0.984375,-4.640625 0.984375,-2.285157 3.058593,-4.042969 2.074219,-1.792969 5.308594,-2.882813 3.269531,-1.089843 7.769531,-1.089843 1.160157,0 2.496094,0.105468 1.371089,0.105469 2.742189,0.316407 1.40625,0.175781 2.74219,0.421875 1.37109,0.246093 2.53125,0.527343 v 5.625 q -2.70704,-0.773437 -5.41407,-1.160156 -2.707028,-0.421875 -5.238278,-0.421875 -5.378906,0 -7.910156,1.792969 -2.53125,1.792969 -2.53125,4.816406 0,1.863281 1.019531,3.199219 1.054688,1.335937 2.742188,2.390625 1.6875,1.054687 3.832031,1.933594 2.179688,0.84375 4.429688,1.757812 2.249996,0.914063 4.394526,2.003906 2.17969,1.089844 3.86719,2.601563 1.6875,1.476562 2.70703,3.480469 1.05469,2.003906 1.05469,4.746096 z" />
    <path
       id="path56"
       style="fill:#000000"
       d="m 287.61642,115.27734 q -5.51953,2.28516 -11.5664,2.28516 -9.73828,0 -14.97656,-5.80078 -5.20313,-5.83594 -5.20313,-17.226564 0,-5.519531 1.44141,-9.984375 1.4414,-4.464844 4.11328,-7.558594 2.67187,-3.128906 6.46875,-4.816406 3.79687,-1.6875 8.50781,-1.6875 3.19922,0 5.94141,0.5625 2.74218,0.527344 5.27343,1.652344 v 6.152344 q -2.49609,-1.371094 -5.16796,-2.074219 -2.67188,-0.738281 -5.83594,-0.738281 -3.23438,0 -5.8711,1.230468 -2.60156,1.195313 -4.42968,3.515625 -1.82813,2.285157 -2.8125,5.625 -0.98438,3.304688 -0.98438,7.558594 0,8.929684 3.6211,13.464844 3.62109,4.53516 10.61718,4.53516 2.95313,0 5.66016,-0.66797 2.70703,-0.70313 5.20312,-1.9336 z" />
    <path
       id="path58"
       style="fill:#000000"
       d="m 327.72971,97.488281 q 0,1.300781 -0.0352,2.179688 -0.0352,0.878911 -0.10547,1.652341 h -24.78516 q 0,5.41407 3.02344,8.33203 3.02344,2.88282 8.71875,2.88282 1.54688,0 3.09375,-0.10547 1.54688,-0.14063 2.98828,-0.35156 1.44141,-0.21094 2.74219,-0.45704 1.33594,-0.28125 2.46094,-0.59765 v 5.02734 q -2.4961,0.70313 -5.66016,1.125 -3.1289,0.45703 -6.5039,0.45703 -4.53516,0 -7.80469,-1.23047 -3.26953,-1.23046 -5.37891,-3.55078 -2.07422,-2.35547 -3.09375,-5.73047 -0.98437,-3.41015 -0.98437,-7.699215 0,-3.726563 1.05468,-7.03125 1.08985,-3.339844 3.12891,-5.835938 2.07422,-2.53125 5.0625,-4.007812 2.98828,-1.476563 6.78516,-1.476563 3.6914,0 6.53906,1.160157 2.84766,1.160156 4.78125,3.304687 1.96875,2.109375 2.95312,5.167969 1.01954,3.023437 1.01954,6.785156 z m -6.36329,-0.878906 q 0.10547,-2.355469 -0.45703,-4.289063 -0.5625,-1.96875 -1.75781,-3.375 -1.16016,-1.40625 -2.91797,-2.179687 -1.75781,-0.808594 -4.07812,-0.808594 -2.00391,0 -3.65625,0.773438 -1.65235,0.773437 -2.84766,2.179687 -1.19531,1.40625 -1.93359,3.375 -0.73828,1.96875 -0.91407,4.324219 z" />
    <path
       id="path60"
       style="fill:#000000"
       d="m 339.01486,81.703125 h 5.58985 l 0.17578,6.503906 q 3.1289,-3.761719 6.15234,-5.449219 3.05859,-1.6875 6.15234,-1.6875 5.48438,0 8.29688,3.550782 2.84766,3.550781 2.63672,10.546875 h -6.1875 q 0.10547,-4.640625 -1.3711,-6.714844 -1.4414,-2.109375 -4.2539,-2.109375 -1.23047,0 -2.4961,0.457031 -1.23046,0.421875 -2.5664,1.40625 -1.30078,0.949219 -2.77735,2.460938 -1.47656,1.511718 -3.16406,3.65625 V 117 h -6.1875 z" />
    <path
       id="path62"
       style="fill:#000000"
       d="m 405.67111,116.50781 q -2.07422,0.52735 -4.28906,0.73828 -2.21484,0.2461 -4.5,0.2461 -6.64453,0 -9.91406,-2.98828 -3.26953,-3.02344 -3.26953,-9.2461 V 86.835937 h -9.87891 v -5.132812 h 9.87891 V 72 l 6.11718,-1.582031 v 11.285156 h 15.85547 v 5.132812 h -15.85547 v 17.929693 q 0,3.79687 2.00391,5.69531 2.03906,1.86328 5.97656,1.86328 1.6875,0 3.69141,-0.24609 2.0039,-0.28125 4.18359,-0.84375 z" />
  </g>
  <path
     d="m 255.80897,133 h 149.81"
     stroke-miterlimit="8"
     id="path27"
     style="fill:none;fill-rule:evenodd;stroke:#00bdff;stroke-width:8;stroke-miterlimit:8" />
  <g
     id="text29"
     style="font-weight:400;font-size:43px;font-family:Consolas, Consolas_MSFontService, sans-serif;fill:#595959"
     aria-label="robo">
    <path
       id="path65"
       style="font-weight:400;font-size:43px;font-family:Consolas, Consolas_MSFontService, sans-serif;fill:#595959"
       d="m 137.69319,84.919922 h 3.33838 l 0.10498,3.884277 q 1.86865,-2.246582 3.67432,-3.254394 1.82666,-1.007813 3.67431,-1.007813 3.27539,0 4.95508,2.120606 1.70069,2.120605 1.57471,6.298828 h -3.69531 q 0.063,-2.771485 -0.81885,-4.010254 -0.86084,-1.259766 -2.54053,-1.259766 -0.73486,0 -1.49072,0.272949 -0.73486,0.251954 -1.53272,0.839844 -0.77685,0.566895 -1.65869,1.469727 -0.88183,0.902832 -1.88965,2.183594 V 106 h -3.69531 z" />
    <path
       id="path67"
       style="font-weight:400;font-size:43px;font-family:Consolas, Consolas_MSFontService, sans-serif;fill:#595959"
       d="m 178.86653,95.291992 q 0,2.456543 -0.69287,4.51416 -0.69287,2.036618 -1.99463,3.506348 -1.30176,1.44873 -3.17041,2.26758 -1.86865,0.79785 -4.24121,0.79785 -2.26758,0 -4.07324,-0.69287 -1.78467,-0.71387 -3.04444,-2.07861 -1.23877,-1.36475 -1.91064,-3.38038 -0.65088,-2.015621 -0.65088,-4.640133 0,-2.456542 0.69287,-4.472167 0.69287,-2.036622 1.99463,-3.485352 1.30176,-1.469727 3.17041,-2.267578 1.86865,-0.818848 4.24121,-0.818848 2.26758,0 4.05225,0.713867 1.80566,0.692871 3.04443,2.057618 1.25977,1.34375 1.91065,3.359375 0.67187,2.015625 0.67187,4.61914 z m -3.7373,0.167969 q 0,-1.952637 -0.44092,-3.401367 -0.41992,-1.469727 -1.21777,-2.435547 -0.79786,-0.986817 -1.95264,-1.469727 -1.13379,-0.503906 -2.54053,-0.503906 -1.63769,0 -2.81348,0.650879 -1.15478,0.629883 -1.91064,1.700684 -0.73486,1.0708 -1.0918,2.498535 -0.33593,1.406738 -0.33593,2.960449 0,1.952637 0.41992,3.422363 0.44092,1.469726 1.23877,2.456546 0.79785,0.96582 1.93164,1.46972 1.13379,0.48291 2.56152,0.48291 1.6377,0 2.79248,-0.62988 1.17578,-0.65088 1.91065,-1.72168 0.75586,-1.070799 1.09179,-2.477538 0.35694,-1.427734 0.35694,-3.002441 z" />
    <path
       id="path69"
       style="font-weight:400;font-size:43px;font-family:Consolas, Consolas_MSFontService, sans-serif;fill:#595959"
       d="m 202.21419,95.082031 q 0,2.624512 -0.73487,4.703125 -0.71386,2.057614 -2.05761,3.506344 -1.32276,1.42774 -3.2334,2.20459 -1.91065,0.75586 -4.3042,0.75586 -1.86865,0 -3.82129,-0.35693 -1.95264,-0.35693 -3.86328,-1.13379 V 76.33252 h 3.65332 V 84.5 l -0.16797,3.905273 q 1.57471,-2.120605 3.35938,-2.981445 1.80566,-0.881836 3.86328,-0.881836 1.80566,0 3.17041,0.75586 1.36474,0.755859 2.28857,2.141601 0.92383,1.364746 1.38574,3.317383 0.46192,1.931641 0.46192,4.325195 z M 198.47688,95.25 q 0,-1.658691 -0.25195,-3.044434 -0.23096,-1.385742 -0.75586,-2.372558 -0.5249,-0.986817 -1.34375,-1.532715 -0.81885,-0.566895 -1.95264,-0.566895 -0.69287,0 -1.40673,0.230957 -0.71387,0.209961 -1.49073,0.734864 -0.75586,0.503906 -1.6167,1.364746 -0.83984,0.839844 -1.80566,2.099609 v 10.225096 q 1.0708,0.41992 2.18359,0.67188 1.1128,0.23095 2.12061,0.23095 1.25976,0 2.39355,-0.39892 1.15479,-0.39893 2.01563,-1.32276 0.88183,-0.94482 1.38574,-2.477535 0.5249,-1.553711 0.5249,-3.842285 z" />
    <path
       id="path71"
       style="font-weight:400;font-size:43px;font-family:Consolas, Consolas_MSFontService, sans-serif;fill:#595959"
       d="m 226.23372,95.291992 q 0,2.456543 -0.69287,4.51416 -0.69287,2.036618 -1.99463,3.506348 -1.30176,1.44873 -3.17041,2.26758 -1.86865,0.79785 -4.24121,0.79785 -2.26758,0 -4.07324,-0.69287 -1.78467,-0.71387 -3.04444,-2.07861 -1.23877,-1.36475 -1.91064,-3.38038 -0.65088,-2.015621 -0.65088,-4.640133 0,-2.456542 0.69287,-4.472167 0.69287,-2.036622 1.99463,-3.485352 1.30176,-1.469727 3.17041,-2.267578 1.86865,-0.818848 4.24121,-0.818848 2.26758,0 4.05225,0.713867 1.80566,0.692871 3.04443,2.057618 1.25976,1.34375 1.91064,3.359375 0.67188,2.015625 0.67188,4.61914 z m -3.73731,0.167969 q 0,-1.952637 -0.44091,-3.401367 -0.41993,-1.469727 -1.21778,-2.435547 -0.79785,-0.986817 -1.95263,-1.469727 -1.13379,-0.503906 -2.54053,-0.503906 -1.6377,0 -2.81348,0.650879 -1.15478,0.629883 -1.91064,1.700684 -0.73487,1.0708 -1.0918,2.498535 -0.33594,1.406738 -0.33594,2.960449 0,1.952637 0.41993,3.422363 0.44091,1.469726 1.23876,2.456546 0.79786,0.96582 1.93165,1.46972 1.13378,0.48291 2.56152,0.48291 1.63769,0 2.79248,-0.62988 1.17578,-0.65088 1.91064,-1.72168 0.75586,-1.070799 1.0918,-2.477538 0.35693,-1.427734 0.35693,-3.002441 z" />
  </g>
  <path
     d="m 166.80897,97 c 0,-1.105 0.895,-2 2,-2 1.105,0 2,0.895 2,2 0,1.105 -0.895,2 -2,2 -1.105,0 -2,-0.895 -2,-2 z"
     id="path31"
     style="fill:#595959;fill-rule:evenodd" />
  <path
     d="m 213.80897,97 c 0,-1.105 0.895,-2 2,-2 1.105,0 2,0.895 2,2 0,1.105 -0.895,2 -2,2 -1.105,0 -2,-0.895 -2,-2 z"
     id="path33"
     style="fill:#595959;fill-rule:evenodd" />
</svg>
